<svg xmlns="http://www.w3.org/2000/svg" viewBox="0 0 262.22 30.9">
  <defs>
    <style>
      .cls-1 {
        isolation: isolate;
      }

      .cls-2 {
        mix-blend-mode: multiply;
      }

      .cls-3 {
        fill: #fff;
      }
    </style>
  </defs>
  <title>CC_Logo_white</title>
  <g class="cls-1">
    <g id="CSUN">
      <g class="cls-2">
        <g>
          <path class="cls-3" d="M349.5,300.79V302c3.18,0.37,3.89,1.54,3.89,4.66v9.8h-0.17l-11.93-15.7H325.67V302c3.18,0.37,3.89,1.54,3.89,4.66V315c0,2.51-.5,3.75-1.61,4.89a5.21,5.21,0,0,1-3.85,1.44c-3.59,0-5.8-1.68-5.8-5.6V303.5c0-1.11.6-1.34,2.92-1.44v-1.27H307.63a24.74,24.74,0,0,1-2.79-.1c-0.7-.11-1.52-0.42-2.21-0.54a12.68,12.68,0,0,0-2.33-.18,7,7,0,0,0-7.23,7.3c0,4.12,3.35,5.43,6.74,6.5,3.85,1.27,5.33,2.15,5.33,4.46A3.74,3.74,0,0,1,301,322c-2.78,0-4.85-1.7-6.56-5.49H292.8v6.93h1.42l1.12-1a13.08,13.08,0,0,0,5.19,1c5.66,0,7.88-3.79,7.88-7.51,0-4.16-3.28-5.46-6.37-6.47-3.69-1.17-5.33-1.91-5.33-4.19a3.35,3.35,0,0,1,3.55-3.52,5.31,5.31,0,0,1,5.59,4h1.41v-0.61a3.2,3.2,0,0,1,6.39,0v10.86c0,4.93,3.42,7.44,9,7.44s8.55-3.25,8.55-7.58V305.08a3.19,3.19,0,0,1,6.37,0v11.83c0,3.18-.43,4.26-3.42,4.69v1.24h8.68V321.6c-3.22-.4-3.62-1.54-3.62-4.69V305.69h0.12l13.43,17.72H355V306.69c0-3.12.23-4.22,3.22-4.66v-1.24H349.5Z" transform="translate(-270.61 -296.38)"/>
          <path class="cls-3" d="M282.93,321.32c-3.55,0-7.23-3.21-7.23-9.89,0-6.52,3-9.86,6.48-9.86,2.94,0,5.17,2.47,6.52,6.55h1.52v-8h-1.35l-1,1.45a12,12,0,0,0-5.6-1.45A11.5,11.5,0,0,0,270.61,312c0,6.65,4.09,11.45,11.11,11.45a9.77,9.77,0,0,0,9.42-6.32l-1.28-.61c-1.59,3.21-3.78,4.83-6.92,4.83" transform="translate(-270.61 -296.38)"/>
        </g>
      </g>
    </g>
    <g id="line">
      <rect class="cls-3" x="96.14" width="0.66" height="30.9"/>
    </g>
    <g id="Career_Center" data-name="Career Center">
      <g>
        <path class="cls-3" d="M375.64,312.23a5.19,5.19,0,0,1,5-5.5,3.63,3.63,0,0,1,2.94,1.23l0.33-1.2h1.42v4.13h-1.56C383.15,309,382.26,308,381,308c-1.48,0-2.52,1.09-2.52,4s1.09,4,2.87,4c1.56,0,2.46-1.18,2.72-2.91h1.51c-0.27,2.68-1.79,4.39-4.6,4.39A5,5,0,0,1,375.64,312.23Z" transform="translate(-270.61 -296.38)"/>
        <path class="cls-3" d="M394.42,314h-3.54L390.21,316h1.31v1.37h-4V316h1.13l3.34-9.05h2.58l3.29,9.05h1.23v1.37h-5.43V316h1.4Zm-3.12-1.24H394l-1.31-3.87h-0.06Z" transform="translate(-270.61 -296.38)"/>
        <path class="cls-3" d="M405.13,316h1.46v1.37h-5.45V316h1.42v-7.62h-1.42V307h5.69c3.13,0,4.19,1.32,4.19,2.63s-0.77,2.27-3.21,2.55v0.11c2,0.17,2.63,1.05,2.68,2.28l0,0.61c0,0.68.17,0.83,0.49,0.83s0.41-.22.63-0.93l0.93,0.3c-0.3,1.24-.93,2.19-2.35,2.19-1.62,0-2.35-.85-2.35-2.58l0-.54c0-1.15-.28-1.62-1.45-1.62h-1.29V316Zm1.37-4.42c1.23,0,1.76-.47,1.76-1.67s-0.36-1.59-1.72-1.59h-1.42v3.26h1.37Z" transform="translate(-270.61 -296.38)"/>
        <path class="cls-3" d="M414.18,316h1.42v-7.62h-1.42V307H424v3.68h-1.37c-0.39-2-.63-2.35-2-2.35h-2.55v3.13H419c0.88,0,1-.17,1.18-1.45h1.23v4.2h-1.23c-0.19-1.29-.32-1.48-1.18-1.48h-0.85V316h2.49c1.59,0,1.78-.57,2.16-2.76h1.37v4.09h-10V316Z" transform="translate(-270.61 -296.38)"/>
        <path class="cls-3" d="M426.88,316h1.42v-7.62h-1.42V307h9.86v3.68h-1.37c-0.39-2-.63-2.35-2-2.35h-2.55v3.13h0.85c0.88,0,1-.17,1.18-1.45h1.23v4.2H432.9c-0.19-1.29-.32-1.48-1.18-1.48h-0.85V316h2.49c1.59,0,1.78-.57,2.16-2.76h1.37v4.09h-10V316Z" transform="translate(-270.61 -296.38)"/>
        <path class="cls-3" d="M443.57,316H445v1.37h-5.45V316H441v-7.62h-1.42V307h5.68c3.13,0,4.19,1.32,4.19,2.63s-0.77,2.27-3.21,2.55v0.11c2,0.17,2.63,1.05,2.68,2.28l0,0.61c0,0.68.17,0.83,0.49,0.83s0.41-.22.63-0.93l0.93,0.3c-0.3,1.24-.93,2.19-2.35,2.19-1.62,0-2.35-.85-2.35-2.58l0-.54c0-1.15-.28-1.62-1.45-1.62h-1.29V316Zm1.37-4.42c1.23,0,1.76-.47,1.76-1.67s-0.36-1.59-1.72-1.59h-1.42v3.26h1.37Z" transform="translate(-270.61 -296.38)"/>
        <path class="cls-3" d="M457.1,312.23a5.18,5.18,0,0,1,5-5.5A3.63,3.63,0,0,1,465,308l0.33-1.2h1.42v4.13h-1.56c-0.63-1.91-1.51-2.87-2.82-2.87-1.48,0-2.52,1.09-2.52,4s1.09,4,2.87,4c1.56,0,2.46-1.18,2.72-2.91H467c-0.27,2.68-1.79,4.39-4.6,4.39A5,5,0,0,1,457.1,312.23Z" transform="translate(-270.61 -296.38)"/>
        <path class="cls-3" d="M469.47,316h1.42v-7.62h-1.42V307h9.86v3.68H478c-0.39-2-.63-2.35-2-2.35h-2.55v3.13h0.85c0.88,0,1-.17,1.18-1.45h1.23v4.2h-1.23c-0.19-1.29-.32-1.48-1.18-1.48h-0.85V316h2.49c1.59,0,1.78-.57,2.16-2.76h1.37v4.09h-10V316Z" transform="translate(-270.61 -296.38)"/>
        <path class="cls-3" d="M485.09,309.46h-0.14V316h1.42v1.37h-4.17V316h1.35v-7.62h-1.35V307h4.41l4.39,7.24h0.14v-5.87h-1.42V307h4.17v1.37h-1.35v9.13H490Z" transform="translate(-270.61 -296.38)"/>
        <path class="cls-3" d="M498.28,316h1.62v-7.81h-0.39c-1.28,0-1.54.43-2.13,3h-1.24V307h10.11v4.17H505c-0.58-2.57-.85-3-2.13-3h-0.39V316h1.62v1.37h-5.83V316Z" transform="translate(-270.61 -296.38)"/>
        <path class="cls-3" d="M508.69,316h1.42v-7.62h-1.42V307h9.86v3.68h-1.37c-0.39-2-.63-2.35-2-2.35h-2.55v3.13h0.85c0.88,0,1-.17,1.18-1.45h1.23v4.2H514.7c-0.19-1.29-.31-1.48-1.18-1.48h-0.85V316h2.49c1.59,0,1.78-.57,2.16-2.76h1.37v4.09h-10V316Z" transform="translate(-270.61 -296.38)"/>
        <path class="cls-3" d="M525.38,316h1.46v1.37h-5.45V316h1.42v-7.62h-1.42V307h5.69c3.13,0,4.19,1.32,4.19,2.63s-0.77,2.27-3.21,2.55v0.11c2,0.17,2.63,1.05,2.68,2.28l0,0.61c0,0.68.17,0.83,0.49,0.83s0.41-.22.63-0.93l0.93,0.3c-0.3,1.24-.93,2.19-2.35,2.19-1.62,0-2.35-.85-2.35-2.58l0-.54c0-1.15-.28-1.62-1.45-1.62h-1.29V316Zm1.37-4.42c1.23,0,1.76-.47,1.76-1.67s-0.36-1.59-1.72-1.59h-1.42v3.26h1.37Z" transform="translate(-270.61 -296.38)"/>
      </g>
    </g>
  </g>
</svg>
