<svg id="Layer_1" data-name="Layer 1" xmlns="http://www.w3.org/2000/svg" viewBox="0 0 225.8 203.51">
  <defs>
    <style>
      .cls-1 {
        fill: #e2e2e2;
      }

      .cls-2 {
        fill: #fff;
      }
    </style>
  </defs>
  <title>VIDTEAM_LOGO_white</title>
  <g>
    <path class="cls-1" d="M379,290.66l7.89,35.45L395,290.66h7.59l-11.71,45.65H381.5L370,290.66h9Z" transform="translate(-367.87 -178)"/>
    <path class="cls-1" d="M415.85,290.66v45.65h-8.56V290.66h8.56Z" transform="translate(-367.87 -178)"/>
    <path class="cls-1" d="M434.44,290.66c4.07,0,8.62,0,12.75,2.61,4.31,2.73,7.28,7.89,7.28,20.15,0,11.78-2.73,17.3-7.47,20.27-4.13,2.61-8.92,2.61-12.56,2.61H424V290.66h10.46Zm-1.88,38.67h2.88c1.94,0,4.19,0,6.13-1.4,3-2.12,4-6.62,4-14.51,0-7.65-.91-12.2-4.07-14.39-2-1.4-4.37-1.4-6.07-1.4h-2.89v31.69h0Z" transform="translate(-367.87 -178)"/>
    <path class="cls-1" d="M483.59,290.66v7.25h-9.23v38.4H465.8v-38.4h-9.16v-7.22h27Z" transform="translate(-367.87 -178)"/>
    <path class="cls-1" d="M510.66,290.66v7.1h-13.6v11.35h11.38v7.1H497.06v13h14.2v7.1h-22.7V290.66h22.1Z" transform="translate(-367.87 -178)"/>
    <path class="cls-1" d="M538.27,336.31l-2.37-10.4H523.82l-2.38,10.4h-7.53l11.53-45.65h10.2l11.47,45.65h-8.84Zm-12.83-17h9l-4.37-19.54Z" transform="translate(-367.87 -178)"/>
    <path class="cls-1" d="M562.67,290.66l9.47,32.66,9.23-32.66h11.07v45.65h-8.32v-35.4l-8.92,33.75h-7.47l-8.88-33.75v35.4h-7.34V290.66h11.16Z" transform="translate(-367.87 -178)"/>
  </g>
  <g>
    <path class="cls-2" d="M377.08,289.66L385,325.11l8.13-35.45h7.59L389,335.31h-9.35L368.1,289.66h9Z" transform="translate(-367.87 -178)"/>
    <path class="cls-2" d="M414,289.66v45.65h-8.54V289.66H414Z" transform="translate(-367.87 -178)"/>
    <path class="cls-2" d="M432.56,289.66c4.07,0,8.62,0,12.75,2.61,4.31,2.73,7.28,7.89,7.28,20.15,0,11.78-2.73,17.3-7.47,20.27-4.13,2.61-8.92,2.61-12.56,2.61H422.11V289.66h10.45Zm-1.88,38.67h2.85c1.94,0,4.19,0,6.13-1.4,3-2.12,4-6.62,4-14.51,0-7.65-.91-12.2-4.07-14.39-2-1.4-4.37-1.4-6.07-1.4h-2.85v31.69h0Z" transform="translate(-367.87 -178)"/>
    <path class="cls-2" d="M481.72,289.66v7.25h-9.23v38.4h-8.56v-38.4h-9.17v-7.22h27Z" transform="translate(-367.87 -178)"/>
    <path class="cls-2" d="M508.79,289.66v7.1h-13.6v11.35H506.6v7.1H495.19v13h14.25v7.1h-22.7V289.66h22.05Z" transform="translate(-367.87 -178)"/>
    <path class="cls-2" d="M536.44,335.31l-2.4-10.4H522l-2.43,10.38H512l11.59-45.65h10.2l11.47,45.65h-8.82v0Zm-12.87-17h9l-4.37-19.54Z" transform="translate(-367.87 -178)"/>
    <path class="cls-2" d="M560.8,289.66l9.47,32.66,9.23-32.66h11.11v45.65h-8.32v-35.4l-8.92,33.75H565.9L557,299.91v35.4h-7.34V289.66H560.8Z" transform="translate(-367.87 -178)"/>
  </g>
  <g>
    <path class="cls-2" d="M415.21,265.27l0.23,0.25,0.48-.55h-1Z" transform="translate(-367.87 -178)"/>
    <path class="cls-2" d="M429.82,181.07c-3.36-1.1-6.88-1.72-10.33-2.57h-9.43a8.18,8.18,0,0,1-1.44.48c-22.83,3.22-39.48,21.34-40.57,44.16-1.21,25.27,18.11,46.05,42,48.44l3.3-4.1a0.39,0.39,0,0,0,.07-0.55l-0.07-.07-1.69-2c-20.59-1.44-37.3-19.26-37-40,0.33-22.51,18.45-39.95,41.2-39.63,21.6,0.3,39.48,18.76,39.14,40.4a39.9,39.9,0,0,1-35.66,39.06l-1.9,2.11-0.28.33,3.51,4.26c0.8-.1,1.6-0.22,2.41-0.36A46.53,46.53,0,0,0,429.82,181.07Z" transform="translate(-367.87 -178)"/>
    <path class="cls-2" d="M415.44,268.72l-0.22.27-2.17,2.8a46.25,46.25,0,0,0,4.78-.07l-0.29-.36Z" transform="translate(-367.87 -178)"/>
    <path class="cls-2" d="M389.6,217.52l1.33,10.39c0.06,0.45.13,0.9,0.19,1.33H394l-0.38-2.95-1-8.11-0.82-6.45q-0.38-3-.76-5.9c-0.16-1.3-.32-2.59-0.49-3.89h-3c0.22,1.63.43,3.26,0.65,4.89Q388.91,212.19,389.6,217.52Z" transform="translate(-367.87 -178)"/>
    <path class="cls-2" d="M397.15,287.74l-0.28.38h0.57l1.66,0.06h1.24l6.17-8,6.53-8.42a28.27,28.27,0,0,1-3-.2Z" transform="translate(-367.87 -178)"/>
    <path class="cls-2" d="M431.31,251.35l7-7.83a0.74,0.74,0,0,0,.17-0.43V232.61h5.65v-2.7H432.75v2.47c0,0.2.12,0.2,0.26,0.2h2.64l-0.11,7-3-1.64c0.13,2-.14,3.89.56,5.72a5,5,0,0,1,.25.91,0.58,0.58,0,0,1-.1.43q-2.89,3.34-5.8,6.66l-11.18,12.82-0.38.43a29.58,29.58,0,0,0,3.42-.27l3.27-3.65Z" transform="translate(-367.87 -178)"/>
    <path class="cls-2" d="M415,265l-4.12-4.83q-6.23-7.29-12.47-14.56A1.45,1.45,0,0,1,398,244a9.41,9.41,0,0,0,.51-2.25c0.11-1.12.09-2.24,0.12-3.37a3,3,0,0,0,0-.32l-3,1.63v-7h2.49a0.3,0.3,0,0,0,.37-0.37v-2a0.27,0.27,0,0,0-.33-0.33H387.09v2.68h5.64v10.3a1,1,0,0,0,.28.76c0.9,1,1.78,2,2.66,3l10.77,12.23,5.24,6c0.7,0,1.41.08,2.12,0.09H415v0Z" transform="translate(-367.87 -178)"/>
    <path class="cls-2" d="M430.67,287.91a2.53,2.53,0,0,1,.18.27h1.24l2.21-.09-13.64-16.65q-1.43.18-2.85,0.28Z" transform="translate(-367.87 -178)"/>
    <path class="cls-2" d="M436.74,222.4q-0.39,3-.77,6.06c0,0.26-.06.53-0.08,0.81h2.81L442.21,202h-2.74a0.32,0.32,0,0,0-.17.22c0,0.27-.07.54-0.1,0.81l-0.76,6-0.94,7.39Z" transform="translate(-367.87 -178)"/>
    <rect class="cls-2" x="31.92" y="61.14" width="31.61" height="2.98"/>
    <path class="cls-2" d="M414.84,178a46.91,46.91,0,1,0,46.85,47v-0.06A46.88,46.88,0,0,0,414.84,178h0Zm0,86.24a39.33,39.33,0,1,1,39.28-39.38v0a39.31,39.31,0,0,1-39.28,39.33h0Z" transform="translate(-367.87 -178)"/>
    <g>
      <path class="cls-2" d="M412.88,212.84h-0.44v1.38h0.42a0.65,0.65,0,0,0,.4-0.09,0.77,0.77,0,0,0,.19-0.61,0.71,0.71,0,0,0-.18-0.58A0.6,0.6,0,0,0,412.88,212.84Z" transform="translate(-367.87 -178)"/>
      <polygon class="cls-2" points="32.31 36.97 33.19 36.97 32.76 35.05 32.31 36.97"/>
      <path class="cls-2" d="M404,212.84h-0.43v1.38h0.41a0.65,0.65,0,0,0,.4-0.09,0.77,0.77,0,0,0,.19-0.61,0.71,0.71,0,0,0-.18-0.58A0.6,0.6,0,0,0,404,212.84Z" transform="translate(-367.87 -178)"/>
      <path class="cls-2" d="M432.16,212.84h-0.43v1.38h0.41a0.65,0.65,0,0,0,.4-0.09,0.77,0.77,0,0,0,.19-0.61,0.71,0.71,0,0,0-.18-0.58A0.6,0.6,0,0,0,432.16,212.84Z" transform="translate(-367.87 -178)"/>
      <path class="cls-2" d="M392.15,206l3.08,18H435.3l2.24-18H392.15ZM399,217h-0.1c-0.23,0-.47-0.12-0.71-0.12-1.36,0-1.71-1.1-1.71-2.37s0.4-2.34,1.76-2.34a2.37,2.37,0,0,1,.76,0v0.7a1.31,1.31,0,0,0-.6-0.1c-0.71,0-1,.56-1,1.58s0.25,1.6,1,1.6a1.12,1.12,0,0,0,.57-0.1V217Zm2.44,0-0.23-1H400l-0.24,1h-0.74l1.14-5h1l1.13,5h-0.88Zm3.22,0L404,215h0v2h-1v-5h0.93a2.07,2.07,0,0,1,1,.3,1.33,1.33,0,0,1,.46,1.15,1.61,1.61,0,0,1-.63,1.45l0.8,2.1h-0.9Zm3.34,0h-2v-5h2v1h-1v1h1v1h-1v1h1v1Zm3,0h-2v-5h2v1h-1v1h1v1h-1v1h1v1Zm2.58,0-0.73-2H412v2h0v-5h0.85a2.07,2.07,0,0,1,1,.3,1.33,1.33,0,0,1,.46,1.15,1.61,1.61,0,0,1-.63,1.45l0.8,2.1h-0.9Zm4.42,0h0.31c-0.23,0-.47-0.12-0.71-0.12-1.36,0-1.71-1.1-1.71-2.37s0.2-2.34,1.56-2.34a1.15,1.15,0,0,1,.55,0v0.7a0.51,0.51,0,0,0-.4-0.1c-0.71,0-.87.56-0.87,1.58s0.09,1.6.86,1.6a0.54,0.54,0,0,0,.41-0.1V217Zm3,0h-2v-5h2v1h-1v1h1v1h-1v1h1v1Zm4,0h-1.18L422,213.72V217h0v-5h0v0.16l2,2.88v-3h1v5Zm3-4h-1v4h-1v-4h-1v-1h3v0.2h0V213Zm2,4h-2v-5h2v1h-1v1h1v1h-1v1h1v1Zm2.86,0-0.68-2H432v2h-1v-5h1.13a2.07,2.07,0,0,1,1,.3,1.33,1.33,0,0,1,.46,1.15,1.61,1.61,0,0,1-.63,1.45l0.8,2.1h-0.9Z" transform="translate(-367.87 -178)"/>
    </g>
  </g>
  <g>
    <path class="cls-2" d="M388.26,374c-0.06-1.18-.54-1.78-1.4-1.78-1.12,0-1.62,1-1.62,3.17a9,9,0,0,0,.31,2.75,1.36,1.36,0,0,0,1.31,1c1,0,1.46-.79,1.49-2.35h1c-0.09,2.1-.9,3.12-2.44,3.12-1.78,0-2.58-1.34-2.58-4.32a5.26,5.26,0,0,1,.75-3.32,2.25,2.25,0,0,1,1.88-.85c1.39,0,2.22.93,2.31,2.55h-1v0Z" transform="translate(-367.87 -178)"/>
    <path class="cls-2" d="M391.52,377.46l-0.64,2.35h-1l2.36-8.19h1.2l2.43,8.19h-1l-0.68-2.35h-2.67Zm1.74-3.35c-0.18-.68-0.22-0.82-0.4-1.57-0.12.52-.25,1-0.41,1.57l-0.7,2.53H394Z" transform="translate(-367.87 -178)"/>
    <path class="cls-2" d="M397.88,378.91h3.36v0.86h-4.33v-8.19h1v7.33h0Z" transform="translate(-367.87 -178)"/>
    <path class="cls-2" d="M403.38,379.81h-1v-8.19h1v8.19Z" transform="translate(-367.87 -178)"/>
    <path class="cls-2" d="M409.25,372.48h-3.34v2.79H409v0.86h-3.09v3.68h-1v-8.19h4.31v0.86h0Z" transform="translate(-367.87 -178)"/>
    <path class="cls-2" d="M415,372.81a7.64,7.64,0,0,1,.43,3,6.73,6.73,0,0,1-.53,3,2.42,2.42,0,0,1-4.23-.19,7.8,7.8,0,0,1-.43-2.91,6.8,6.8,0,0,1,.53-3.08A2.43,2.43,0,0,1,415,372.81Zm-3.79,2.9c0,2.46.47,3.43,1.63,3.43s1.62-1,1.62-3.39-0.45-3.45-1.62-3.45-1.63,1-1.63,3.41h0Z" transform="translate(-367.87 -178)"/>
    <path class="cls-2" d="M417.83,379.81h-1v-8.19h2.3a2.17,2.17,0,0,1,1.69.52,2.21,2.21,0,0,1,.56,1.61,1.8,1.8,0,0,1-1.29,2,1.48,1.48,0,0,1,1,.52,2.49,2.49,0,0,1,.32,1.33v0.91a2,2,0,0,0,.42,1.36h-1.14a4,4,0,0,1-.23-1.36v-0.76c0-1.22-.36-1.58-1.53-1.58h-1.08v3.71Zm1.26-4.48a1.47,1.47,0,0,0,0-2.93h-1.26v2.93h1.26Z" transform="translate(-367.87 -178)"/>
    <path class="cls-2" d="M426.71,379.81l-2.27-5.57c-0.22-.57-0.4-1.06-0.55-1.49,0,0.53.09,1.2,0.09,1.65v5.41h-0.9v-8.19h1.26l2.14,5.38a16.93,16.93,0,0,1,.6,1.62v-7H428v8.19h-1.27Z" transform="translate(-367.87 -178)"/>
    <path class="cls-2" d="M430.59,379.81h-1v-8.19h1v8.19Z" transform="translate(-367.87 -178)"/>
    <path class="cls-2" d="M433.32,377.46l-0.64,2.35h-1l2.36-8.19h1.24l2.43,8.19h-1L436,377.46h-2.72Zm1.74-3.35c-0.18-.68-0.22-0.82-0.4-1.57-0.12.52-.25,1-0.41,1.57l-0.7,2.53h2.22Z" transform="translate(-367.87 -178)"/>
    <path class="cls-2" d="M444.66,373.82c0-1.09-.45-1.57-1.38-1.57a1.26,1.26,0,0,0-1.4,1.34A1.36,1.36,0,0,0,443,375l1.14,0.4a2.48,2.48,0,0,1,1.29.84,2.34,2.34,0,0,1,.38,1.39,2.23,2.23,0,0,1-2.52,2.34,2.18,2.18,0,0,1-2.37-1.53,3.47,3.47,0,0,1-.14-1.18h1v0.31a1.39,1.39,0,0,0,1.52,1.63,1.34,1.34,0,0,0,1.53-1.5c0-.81-0.25-1.09-1.2-1.45l-0.92-.32c-1.3-.47-1.76-1-1.76-2.17a2.39,2.39,0,0,1,4.36-1.23,2.86,2.86,0,0,1,.27,1.3h-0.94Z" transform="translate(-367.87 -178)"/>
    <path class="cls-2" d="M449.55,379.81h-1v-7.37h-2v-0.82h5.06v0.82h-2v7.37h0Z" transform="translate(-367.87 -178)"/>
    <path class="cls-2" d="M453,377.46l-0.64,2.35h-1l2.36-8.19h1.24l2.43,8.19h-1l-0.68-2.35H453Zm1.74-3.35c-0.18-.68-0.22-0.82-0.4-1.57-0.12.52-.25,1-0.41,1.57l-0.7,2.53h2.24Z" transform="translate(-367.87 -178)"/>
    <path class="cls-2" d="M460.13,379.81h-1v-7.37h-2v-0.82h5.06v0.82h-2v7.37h0Z" transform="translate(-367.87 -178)"/>
    <path class="cls-2" d="M467.65,372.48h-3.41v2.63h3.28v0.8h-3.28v3h3.54v0.86h-4.51v-8.19h4.38v0.9Z" transform="translate(-367.87 -178)"/>
    <path class="cls-2" d="M476.35,371.62v5.49a3.1,3.1,0,0,1-.45,2,2.51,2.51,0,0,1-3.81,0,3.11,3.11,0,0,1-.45-2v-5.49h1v5.57a2.1,2.1,0,0,0,.34,1.51,1.35,1.35,0,0,0,1,.43,1.33,1.33,0,0,0,1-.43,2.1,2.1,0,0,0,.34-1.51v-5.57h1Z" transform="translate(-367.87 -178)"/>
    <path class="cls-2" d="M481.66,379.81l-2.22-5.57c-0.22-.57-0.4-1.06-0.55-1.49,0,0.53.09,1.2,0.09,1.65v5.41h-0.9v-8.19h1.26l2.14,5.38a16.93,16.93,0,0,1,.6,1.62v-7H483v8.19h-1.32Z" transform="translate(-367.87 -178)"/>
    <path class="cls-2" d="M485.54,379.81h-1v-8.19h1v8.19Z" transform="translate(-367.87 -178)"/>
    <path class="cls-2" d="M488.94,379.81l-2.3-8.19h1.08l1.44,5.45c0.12,0.48.31,1.3,0.38,1.69,0.11-.48.29-1.19,0.43-1.69l1.45-5.45h1l-2.35,8.19h-1.15Z" transform="translate(-367.87 -178)"/>
    <path class="cls-2" d="M498,372.48h-3.41v2.63h3.28v0.8h-3.28v3h3.54v0.86h-4.51v-8.19H498v0.9Z" transform="translate(-367.87 -178)"/>
    <path class="cls-2" d="M500.44,379.81h-1v-8.19h2.3a2.17,2.17,0,0,1,1.69.52,2.21,2.21,0,0,1,.56,1.61,1.8,1.8,0,0,1-1.29,2,1.48,1.48,0,0,1,1,.52,2.49,2.49,0,0,1,.32,1.33v0.91a2,2,0,0,0,.42,1.36H503.3a4,4,0,0,1-.23-1.36v-0.76c0-1.22-.36-1.58-1.53-1.58h-1.1v3.64Zm1.26-4.48a1.47,1.47,0,0,0,0-2.93h-1.26v2.93h1.26Z" transform="translate(-367.87 -178)"/>
    <path class="cls-2" d="M509.18,373.82c0-1.09-.45-1.57-1.38-1.57a1.26,1.26,0,0,0-1.4,1.34,1.36,1.36,0,0,0,1.14,1.4l1.14,0.4a2.48,2.48,0,0,1,1.29.84,2.34,2.34,0,0,1,.38,1.39,2.23,2.23,0,0,1-2.52,2.34,2.18,2.18,0,0,1-2.37-1.53,3.47,3.47,0,0,1-.14-1.18h1v0.31a1.39,1.39,0,0,0,1.52,1.63,1.34,1.34,0,0,0,1.53-1.5c0-.81-0.25-1.09-1.2-1.45l-0.92-.32c-1.3-.47-1.76-1-1.76-2.17a2.39,2.39,0,0,1,4.36-1.23,2.86,2.86,0,0,1,.27,1.3h-0.94Z" transform="translate(-367.87 -178)"/>
    <path class="cls-2" d="M512.71,379.81h-1v-8.19h1v8.19Z" transform="translate(-367.87 -178)"/>
    <path class="cls-2" d="M516.84,379.81h-1v-7.37h-2v-0.82h5.06v0.82h-2v7.37h0Z" transform="translate(-367.87 -178)"/>
    <path class="cls-2" d="M522.78,379.81h-1v-3.28l-2.22-4.91h1.08l1.15,2.7c0.26,0.6.26,0.6,0.32,0.77l0.2,0.48c0.12-.33.36-0.9,0.52-1.25l1.18-2.7h1.07l-2.32,4.91v3.28h0Z" transform="translate(-367.87 -178)"/>
    <path class="cls-2" d="M526.29,378.62v1.11a1.6,1.6,0,0,1-1.13,1.78v-0.6a1,1,0,0,0,.5-1.09h-0.5v-1.19h1.13Z" transform="translate(-367.87 -178)"/>
    <path class="cls-2" d="M533.91,379.81l-2.26-5.57c-0.22-.57-0.4-1.06-0.55-1.49,0,0.53.09,1.2,0.09,1.65v5.41h-0.9v-8.19h1.26l2.14,5.38a16.93,16.93,0,0,1,.6,1.62v-7h0.9v8.19h-1.28Z" transform="translate(-367.87 -178)"/>
    <path class="cls-2" d="M541.37,372.81a7.64,7.64,0,0,1,.43,3,6.73,6.73,0,0,1-.53,3,2.42,2.42,0,0,1-4.23-.19,7.8,7.8,0,0,1-.43-2.91,6.8,6.8,0,0,1,.53-3.08A2.43,2.43,0,0,1,541.37,372.81Zm-3.79,2.9c0,2.46.47,3.43,1.63,3.43s1.62-1,1.62-3.39-0.45-3.45-1.62-3.45-1.64,1-1.64,3.41h0Z" transform="translate(-367.87 -178)"/>
    <path class="cls-2" d="M544.23,379.81h-1v-8.19h2.3a2.17,2.17,0,0,1,1.69.52,2.21,2.21,0,0,1,.56,1.61,1.8,1.8,0,0,1-1.29,2,1.48,1.48,0,0,1,1,.52,2.49,2.49,0,0,1,.32,1.33v0.91a2,2,0,0,0,.42,1.36h-1.14a4,4,0,0,1-.23-1.36v-0.76c0-1.22-.36-1.58-1.53-1.58h-1.08v3.71Zm1.26-4.48a1.47,1.47,0,0,0,0-2.93h-1.26v2.93h1.26Z" transform="translate(-367.87 -178)"/>
    <path class="cls-2" d="M551.86,379.81h-1v-7.37h-2v-0.82h5.06v0.82h-2v7.37h0Z" transform="translate(-367.87 -178)"/>
    <path class="cls-2" d="M556,375.83v4h-1v-8.19h1V375h2.91v-3.39h1v8.19h-1v-4H556Z" transform="translate(-367.87 -178)"/>
    <path class="cls-2" d="M562.5,379.81h-1v-8.19h2.3a2.17,2.17,0,0,1,1.69.52,2.21,2.21,0,0,1,.56,1.61,1.8,1.8,0,0,1-1.29,2,1.48,1.48,0,0,1,1,.52,2.49,2.49,0,0,1,.32,1.33v0.91a2,2,0,0,0,.42,1.36h-1.14a4,4,0,0,1-.23-1.36v-0.76c0-1.22-.36-1.58-1.53-1.58h-1.08v3.71Zm1.26-4.48a1.47,1.47,0,0,0,0-2.93H562.5v2.93h1.26Z" transform="translate(-367.87 -178)"/>
    <path class="cls-2" d="M568.73,379.81h-1v-8.19h1v8.19Z" transform="translate(-367.87 -178)"/>
    <path class="cls-2" d="M570.44,371.62h2c1.33,0,1.87.2,2.31,0.85a6.11,6.11,0,0,1,.66,3.2,5.15,5.15,0,0,1-1,3.52,2.53,2.53,0,0,1-2,.61h-2v-8.19h0Zm1.82,7.42c1,0,1.42-.15,1.73-0.64a6.15,6.15,0,0,0,.49-2.7,5.3,5.3,0,0,0-.58-2.82,1.5,1.5,0,0,0-1.36-.48h-1.13V379h0.85Z" transform="translate(-367.87 -178)"/>
    <path class="cls-2" d="M581.75,375.57v4.24H581a4.94,4.94,0,0,0-.11-0.76,1.87,1.87,0,0,1-1.68.91,2.24,2.24,0,0,1-2-1.19,6.87,6.87,0,0,1-.54-3.14,5.64,5.64,0,0,1,.65-3.18,2.38,2.38,0,0,1,2-1c1.49,0,2.28.87,2.35,2.58h-1c0-1.18-.52-1.79-1.42-1.79a1.43,1.43,0,0,0-1.39,1,6.69,6.69,0,0,0-.31,2.43c0,2.42.5,3.46,1.69,3.46a1.38,1.38,0,0,0,1.36-1.09,6.31,6.31,0,0,0,.17-1.65h-1.73v-0.82h2.63Z" transform="translate(-367.87 -178)"/>
    <path class="cls-2" d="M587.65,372.48h-3.41v2.63h3.28v0.8h-3.28v3h3.54v0.86h-4.51v-8.19h4.38v0.9Z" transform="translate(-367.87 -178)"/>
  </g>
  <g>
    <path class="cls-2" d="M521.55,270H520v7h1.55a3.06,3.06,0,0,0,3.14-2.54,5.25,5.25,0,0,0,0-1C524.69,271.45,523.69,270,521.55,270Z" transform="translate(-367.87 -178)"/>
    <path class="cls-2" d="M568,270h-2v7h2a3.06,3.06,0,0,0,3.14-2.54,5.26,5.26,0,0,0,0-1C571.17,271.45,570.17,270,568,270Z" transform="translate(-367.87 -178)"/>
    <polygon class="cls-2" points="164.71 97 167.71 97 166.23 93.66 164.71 97"/>
    <path class="cls-2" d="M593,268.47a5.47,5.47,0,0,0-5.47-5.47H464.47a5.47,5.47,0,0,0-5.47,5.47v9.06a5.47,5.47,0,0,0,5.47,5.47H587.53a5.47,5.47,0,0,0,5.47-5.47v-9.06ZM475,278h-1v-6.47l-3,3.09-3-3.09V278h-1v-8.74l4,4,4-4V278Zm5.15-.15c-2.25,0-3.15-1.37-3.15-3.7V270h1v4.06c0,1.89.35,2.89,2,2.89s2-1,2-2.89V270h1v4.14h0.25C483.25,276.48,482.4,277.85,480.15,277.85ZM491,278h-6v-9h1v8h5v1Zm6-8h-3v8h-1v-8h-2v-1h6v1Zm3,8h-1v-9h1v9Zm10,0h-1v-6.47l-3,3.09-3-3.09V278h-1v-8.74l4,4,4-4V278Zm7-8h-4v3h4v1h-4v3h4v1h-5v-9h5v1Zm4.55,8H519v-9h2.55a4.22,4.22,0,0,1,4.21,3.74,8.43,8.43,0,0,1,0,.89A4.07,4.07,0,0,1,521.55,278Zm7.45,0h-1v-9h1v9Zm7.92,0L536,276h-3.87l-0.89,2h-1.06l3.89-8.41L538,278h-1.07Zm5.49-1,0.47-.81c1.27,1.06,4,1.3,4-.78,0-1-1.08-1.36-2-1.67-1.5-.53-2.4-0.94-2.4-2.18,0-2.54,3-2.56,5.06-1.68l-0.3.89c-1.2-.7-3.7-1-3.7.78,0,0.8,1,1.09,1.79,1.35,1.61,0.55,2.58,1.07,2.58,2.48C547.91,278.78,543.31,278,542.41,277ZM555,270h-2v8h-1v-8h-3v-1h6v1Zm5.15,7.85c-2.25,0-3.15-1.37-3.15-3.7V270h1v4.06c0,1.89.34,2.89,2,2.89s2-1,2-2.89V270h1v4.14h0.25C563.25,276.48,562.4,277.85,560.15,277.85ZM568,278h-3v-9h3a4.22,4.22,0,0,1,4.21,3.74,8.41,8.41,0,0,1,0,.89A4.07,4.07,0,0,1,568,278Zm7,0h-1v-9h1v9Zm10.2-4.42a4.08,4.08,0,1,1-4.08-4.26,4,4,0,0,1,4.09,3.91Q585.21,273.41,585.2,273.58Z" transform="translate(-367.87 -178)"/>
    <path class="cls-2" d="M581.1,270.22c-1.88,0-3,1.25-3,3.36h0c0,2.1,1.15,3.36,3,3.36s3-1.26,3-3.36S583,270.22,581.1,270.22Z" transform="translate(-367.87 -178)"/>
  </g>
  <g>
    <path class="cls-2" d="M381.28,357.66c0-4.31,3.07-7.33,6.68-7.33a4.84,4.84,0,0,1,3.93,1.64l0.44-1.6h1.89v5.54h-2.08c-0.84-2.54-2-3.82-3.76-3.82-2,0-3.36,1.45-3.36,5.4,0,3.78,1.45,5.4,3.82,5.4,2.08,0,3.28-1.58,3.63-3.89h2c-0.36,3.57-2.4,5.86-6.13,5.86C384,364.82,381.28,361.91,381.28,357.66Z" transform="translate(-367.87 -178)"/>
    <path class="cls-2" d="M406.13,360.07h-4.69l-0.88,2.58h1.74v1.83H397v-1.83h1.45l4.45-12.08h3.45l4.39,12.08h1.64v1.83h-7.23v-1.83H407ZM402,358.41h3.61l-1.74-5.17h-0.08Z" transform="translate(-367.87 -178)"/>
    <path class="cls-2" d="M420.44,362.66h2v1.83h-7.27v-1.83h1.89V352.49h-1.89v-1.83h7.58c4.18,0,5.59,1.76,5.59,3.51s-1,3-4.29,3.4v0.15c2.65,0.23,3.51,1.41,3.57,3l0.06,0.82c0,0.9.23,1.11,0.65,1.11s0.55-.29.84-1.24l1.24,0.4c-0.4,1.66-1.24,2.92-3.13,2.92-2.16,0-3.13-1.13-3.13-3.45v-0.71c0-1.53-.38-2.16-1.93-2.16h-1.78v4.25Zm1.83-5.9c1.64,0,2.35-.63,2.35-2.23,0-1.43-.48-2.12-2.29-2.12h-1.89v4.35h1.83Z" transform="translate(-367.87 -178)"/>
    <path class="cls-2" d="M432.44,362.66h1.89V352.49h-1.89v-1.83h13.2v4.92h-1.83c-0.53-2.63-.84-3.13-2.61-3.13h-3.4v4.18h1.13c1.18,0,1.28-.23,1.58-1.93h1.64v5.61h-1.64c-0.25-1.72-.42-2-1.58-2H437.8v4.37h3.32c2.12,0,2.37-.76,2.88-3.68h1.83v5.46H432.44v-1.8Z" transform="translate(-367.87 -178)"/>
    <path class="cls-2" d="M449.44,362.66h1.89V352.49h-1.89v-1.83h13.15v4.92h-1.83c-0.53-2.63-.84-3.13-2.61-3.13h-3.4v4.18h1.13c1.18,0,1.28-.23,1.58-1.93h1.64v5.61h-1.66c-0.25-1.72-.42-2-1.58-2h-1.13v4.37h3.32c2.12,0,2.37-.76,2.88-3.68h1.83v5.46H449.44v-1.8Z" transform="translate(-367.87 -178)"/>
    <path class="cls-2" d="M471.7,362.66h2v1.83h-7.27v-1.83h1.89V352.49h-1.89v-1.83H474c4.18,0,5.59,1.76,5.59,3.51s-1,3-4.29,3.4v0.15c2.65,0.23,3.51,1.41,3.57,3l0.06,0.82c0,0.9.23,1.11,0.65,1.11s0.55-.29.84-1.24l1.24,0.4c-0.4,1.66-1.24,2.92-3.13,2.92-2.16,0-3.13-1.13-3.13-3.45v-0.71c0-1.53-.38-2.16-1.93-2.16h-1.72v4.2Zm1.83-5.9c1.64,0,2.35-.63,2.35-2.23,0-1.43-.48-2.12-2.29-2.12H471.7v4.35h1.83Z" transform="translate(-367.87 -178)"/>
    <path class="cls-2" d="M489.74,357.66c0-4.31,3.07-7.33,6.68-7.33a4.84,4.84,0,0,1,3.93,1.64l0.44-1.6h1.89v5.54H500.6c-0.84-2.54-2-3.82-3.76-3.82-2,0-3.36,1.45-3.36,5.4,0,3.78,1.45,5.4,3.82,5.4,2.08,0,3.28-1.58,3.63-3.89h2c-0.36,3.57-2.4,5.86-6.13,5.86C492.51,364.82,489.74,361.91,489.74,357.66Z" transform="translate(-367.87 -178)"/>
    <path class="cls-2" d="M506.25,362.66h1.89V352.49h-1.89v-1.83h13.19v4.92h-1.83c-0.53-2.63-.84-3.13-2.61-3.13h-3.4v4.18h1.13c1.18,0,1.28-.23,1.58-1.93H516v5.61h-1.64c-0.25-1.72-.42-2-1.58-2H511.6v4.37h3.32c2.12,0,2.37-.76,2.88-3.68h1.83v5.46H506.25v-1.8Z" transform="translate(-367.87 -178)"/>
    <path class="cls-2" d="M527.08,353.91h-0.19v8.7h1.89v1.83h-5.57v-1.83H525V352.49h-1.81v-1.83h5.88l5.86,9.66h0.19v-7.84h-1.89v-1.83h5.57v1.83H537v12.18h-3.45Z" transform="translate(-367.87 -178)"/>
    <path class="cls-2" d="M544.68,362.66h2.16V352.24h-0.53c-1.7,0-2.06.57-2.84,4h-1.66v-5.57H555.3v5.57h-1.66c-0.78-3.42-1.13-4-2.84-4h-0.52v10.42h2.16v1.83h-7.77v-1.83h0Z" transform="translate(-367.87 -178)"/>
    <path class="cls-2" d="M558.57,362.66h1.87V352.49h-1.89v-1.83H571.7v4.92h-1.83c-0.53-2.63-.84-3.13-2.61-3.13h-3.4v4.18H565c1.18,0,1.28-.23,1.58-1.93h1.64v5.61h-1.64c-0.25-1.72-.42-2-1.58-2h-1.13v4.37h3.32c2.12,0,2.37-.76,2.88-3.68h1.83v5.46H558.57v-1.8Z" transform="translate(-367.87 -178)"/>
    <path class="cls-2" d="M580.83,362.66h2v1.83h-7.27v-1.83h1.88V352.49h-1.89v-1.83h7.58c4.18,0,5.59,1.76,5.59,3.51s-1,3-4.29,3.4v0.15c2.65,0.23,3.51,1.41,3.57,3l0.06,0.82c0,0.9.23,1.11,0.65,1.11s0.55-.29.84-1.24l1.24,0.4c-0.4,1.66-1.24,2.92-3.13,2.92-2.16,0-3.13-1.13-3.13-3.45v-0.71c0-1.53-.38-2.16-1.93-2.16h-1.72v4.2Zm1.83-5.9c1.64,0,2.35-.63,2.35-2.23,0-1.43-.48-2.12-2.29-2.12h-1.89v4.35h1.83Z" transform="translate(-367.87 -178)"/>
  </g>
  <rect class="cls-2" x="10.52" y="164.49" width="215.28" height="0.64"/>
</svg>
