<svg id="Layer_1" data-name="Layer 1" xmlns="http://www.w3.org/2000/svg" viewBox="0 0 225.8 186.86"><defs><style>.cls-1{fill:#fff;}</style></defs><title>Artboard 1</title><path class="cls-1" d="M9.21,111.67l7.86,35.44,8.16-35.44h7.59L21.07,157.31H11.72L.23,111.67h9Z"/><path class="cls-1" d="M46.07,111.67v45.65h-8.5V111.67Z"/><path class="cls-1" d="M64.69,111.67c4.07,0,8.62,0,12.75,2.61,4.31,2.73,7.28,7.89,7.28,20.15,0,11.78-2.73,17.3-7.47,20.27-4.13,2.61-8.92,2.61-12.56,2.61H54.24V111.67Zm-1.88,38.67h2.85c1.94,0,4.19,0,6.13-1.4,3-2.12,4-6.62,4-14.51,0-7.65-.91-12.2-4.07-14.39-2-1.4-4.37-1.4-6.07-1.4H62.8v31.69h0Z"/><path class="cls-1" d="M113.85,111.67v7.25h-9.23v38.4H96.07v-38.4H86.9v-7.25h27Z"/><path class="cls-1" d="M140.92,111.67v7.1h-13.6v11.35h11.41v7.1H127.32v13h14.25v7.1h-22.7V111.67Z"/><path class="cls-1" d="M168.57,157.31l-2.4-10.4h-12.1l-2.43,10.38h-7.53l11.61-45.62h10.2l11.47,45.65h-8.82Zm-12.87-17h9l-4.37-19.54Z"/><path class="cls-1" d="M192.93,111.67l9.47,32.66,9.23-32.66h11.11v45.65h-8.32v-35.4l-8.92,33.75h-7.43l-9-33.76v35.4h-7.3V111.67Z"/><path class="cls-1" d="M47.34,87.27l.23.25L48,87H47Z"/><path class="cls-1" d="M62,3.07C58.59,2,55.07,1.35,51.62.5H42.19A8.18,8.18,0,0,1,40.75,1C17.92,4.2,1.27,22.32.18,45.14-1,70.41,18.29,91.19,42.18,93.58l3.3-4.1a.39.39,0,0,0,.07-.55h0l-.07-.07-1.69-2c-20.59-1.44-37.3-19.26-37-40C7.12,24.35,25.24,6.91,48,7.23c21.6.3,39.48,18.76,39.14,40.4A39.9,39.9,0,0,1,51.47,86.69l-1.9,2.11-.28.33,3.51,4.26c.8-.1,1.6-.22,2.41-.36A46.53,46.53,0,0,0,62,3.07Z"/><path class="cls-1" d="M47.57,90.72l-.22.27-2.17,2.8A46.25,46.25,0,0,0,50,93.72l-.29-.36Z"/><path class="cls-1" d="M21.73,39.52l1.34,10.39c.06.45.13.9.19,1.33h2.87l-.38-2.95-1-8.11-.82-6.45q-.38-3-.76-5.9c-.16-1.3-.32-2.59-.49-3.89h-3c.22,1.63.43,3.26.65,4.89Q21.07,34.19,21.73,39.52Z"/><path class="cls-1" d="M29.28,109.74l-.28.38h.57l1.66.06h1.24l6.17-8,6.53-8.42a28.27,28.27,0,0,1-3-.2Z"/><path class="cls-1" d="M63.44,73.35l7-7.83a.74.74,0,0,0,.17-.43V54.61h5.65v-2.7H64.88v2.47c0,.2.12.2.26.2h2.64l-.11,7-3-1.64c.13,2-.14,3.89.56,5.72a5,5,0,0,1,.25.91.58.58,0,0,1-.1.43q-2.89,3.34-5.8,6.66L48.4,86.48l-.38.43a29.58,29.58,0,0,0,3.42-.27L54.71,83Z"/><path class="cls-1" d="M47.07,87,43,82.15q-6.23-7.29-12.47-14.56a1.45,1.45,0,0,1-.35-1.64,9.41,9.41,0,0,0,.51-2.25c.11-1.12.09-2.24.12-3.37a3,3,0,0,0,0-.32l-3,1.63v-7h2.49a.3.3,0,0,0,.37-.37v-2a.27.27,0,0,0-.33-.33H19.22v2.73h5.64V65a1,1,0,0,0,.28.76c.9,1,1.78,2,2.66,3L38.57,81l5.24,6c.7,0,1.41.08,2.12.09h1.14Z"/><path class="cls-1" d="M62.8,109.91a2.52,2.52,0,0,1,.18.27h1.24l2.21-.09L52.79,93.44q-1.43.18-2.85.28Z"/><path class="cls-1" d="M68.87,44.4q-.39,3-.77,6.06c0,.26-.06.53-.08.81h2.81L74.34,24H71.6a.32.32,0,0,0-.17.22,7.47,7.47,0,0,1-.1.81l-.76,6-.94,7.39Z"/><rect class="cls-1" x="31.92" y="61.14" width="31.61" height="2.98"/><path class="cls-1" d="M47,0A46.91,46.91,0,1,0,93.82,47v-.06A46.88,46.88,0,0,0,47,0h0Zm0,86.24A39.33,39.33,0,1,1,86.25,46.86h0A39.31,39.31,0,0,1,47,86.19h0Z"/><path class="cls-1" d="M36.09,34.84h-.43v1.38h.41a.65.65,0,0,0,.4-.09.77.77,0,0,0,.19-.61.71.71,0,0,0-.18-.58A.6.6,0,0,0,36.09,34.84Z"/><polygon class="cls-1" points="32.31 37 33.19 37 32.76 35.08 32.31 37"/><path class="cls-1" d="M45,34.84h-.44v1.38H45a.65.65,0,0,0,.4-.09.77.77,0,0,0,.19-.61.71.71,0,0,0-.18-.58A.6.6,0,0,0,45,34.84Z"/><path class="cls-1" d="M24.28,27.65l3.08,18.66H67.43l2.24-18.66Zm6.08,11c-1.36,0-1.71-1-1.71-2.26s.35-2.29,1.71-2.29a2.55,2.55,0,0,1,.7.09v.7a1.64,1.64,0,0,0-.55-.1c-.71,0-1,.56-1,1.58s.23,1.6,1,1.6a1.62,1.62,0,0,0,.55-.1v.69h0A2.57,2.57,0,0,1,30.36,38.67Zm3.21,0-.23-1H32.16l-.24,1h-.74l1.14-4.48h1l1.13,4.48Zm3.23,0-.73-1.76h-.42v1.76h-.81V34.19h1.23a1.72,1.72,0,0,1,1,.22,1.26,1.26,0,0,1,.46,1.11,1.28,1.28,0,0,1-.63,1.25l.8,1.9Zm3.54-.06H38.11V34.13h2.17l0,0v.75H39V36h1.09v.7H39v1.19h1.39Zm2.82,0H40.93V34.13h2.14v.78h-1.3V36h1.12v.7H41.77v1.19h1.39Zm2.55.06L45,36.94h-.41v1.73h-.81V34.19H45a1.72,1.72,0,0,1,1,.22,1.26,1.26,0,0,1,.46,1.11,1.28,1.28,0,0,1-.63,1.25l.8,1.9Zm4,0c-1.36,0-1.71-1-1.71-2.26s.35-2.29,1.71-2.29a2.55,2.55,0,0,1,.7.09v.7a1.64,1.64,0,0,0-.55-.1c-.71,0-1,.56-1,1.58s.23,1.6,1,1.6a1.62,1.62,0,0,0,.55-.1v.69h0A2.57,2.57,0,0,1,49.73,38.67Zm3.49-.06H51V34.13h2.17v.78H51.83V36H53v.7H51.83v1.19h1.39Zm3.49.06h-.76l-1.49-2.93v2.93h-.73v-4.5h.84L56,37V34.17h.72Zm3.12-3.76h-.9v3.76h-.86V34.9h-.9v-.71h2.64l0,0Zm2.63,3.7H60.23V34.13H62.4l0,0v.75H61.07V36h1.12v.7H61.07v1.19h1.39Zm2.56.06-.68-1.73h-.46l0,0v1.76h-.78V34.19h1.22a1.72,1.72,0,0,1,1,.22,1.26,1.26,0,0,1,.46,1.11,1.28,1.28,0,0,1-.63,1.25l.8,1.9Z"/><path class="cls-1" d="M64.29,34.84h-.43v1.38h.41a.65.65,0,0,0,.4-.09.77.77,0,0,0,.19-.61.71.71,0,0,0-.18-.58A.6.6,0,0,0,64.29,34.84Z"/><polygon class="cls-1" points="164.71 96.81 167.71 96.81 166.23 93.47 164.71 96.81"/><path class="cls-1" d="M153.68,92.42h-1.61v6.32h1.61a2.8,2.8,0,0,0,3.14-3.15C156.82,93.59,155.82,92.42,153.68,92.42Z"/><path class="cls-1" d="M200.16,92.42h-1.59v6.32h1.59a2.8,2.8,0,0,0,3.14-3.15C203.3,93.59,202.3,92.42,200.16,92.42Z"/><circle class="cls-1" cx="213.26" cy="95.43" r="3.01"/><path class="cls-1" d="M219,85.23H96.11a5.47,5.47,0,0,0-5.47,5.47v9.47a5.47,5.47,0,0,0,5.47,5.47H219a5.47,5.47,0,0,0,5.47-5.47V90.7A5.47,5.47,0,0,0,219,85.23ZM106.74,99.67h-1V93.53l-3,3.09-3-3.09v6.14h-1V91.26l4,4.05,4-4.05Zm5.37.18c-2.25,0-3.32-1.37-3.32-3.7V91.5h1v4.56c0,1.89.67,2.89,2.31,2.89s2.34-1,2.34-2.89V91.5h1v4.64h0C115.45,98.48,114.36,99.85,112.11,99.85Zm10.58-.18h-5.2V91.49h1v7.27h4.2Zm6.38-7.27h-2.6v7.27h-1V92.4h-2.6v-.91h6.2Zm2.62,7.27h-1V91.49h1Zm10.19,0h-1V93.53l-3,3.09-3-3.09v6.14h-1V91.26l4,4.05,4-4.05Zm7.42-7.27h-4.23V95H149v.9h-3.9v2.84h4.23v.92h-5.23V91.49h5.23Zm4.38,7.27h-2.61V91.49h2.61a3.87,3.87,0,0,1,4.22,4.1C157.9,98.34,156,99.67,153.68,99.67Zm7.11,0h-1V91.49h1Zm8.28,0-.89-2h-3.89l-.89,2h-1.06l3.89-8.41,3.89,8.41Zm5.47-.77.47-.81c1.27,1.06,4,1.3,4-.78,0-1-1.08-1.36-2-1.67-1.5-.53-2.4-.94-2.4-2.18,0-2.54,3-2.56,5.06-1.68l-.3.89c-1.2-.7-3.7-1-3.7.78,0,.8,1,1.09,1.79,1.35,1.61.55,2.58,1.07,2.58,2.48C180,100.78,175.44,100,174.54,98.95Zm12.83-6.55h-2.6v7.27h-1V92.4h-2.6v-.91h6.2Zm4.74,7.45c-2.25,0-3.32-1.37-3.32-3.7V91.5h1v4.56c0,1.89.67,2.89,2.31,2.89s2.34-1,2.34-2.89V91.5h1v4.64h0C195.45,98.48,194.36,99.85,192.11,99.85Zm8.05-.18H197.5V91.49h2.66a3.87,3.87,0,0,1,4.22,4.1C204.38,98.34,202.53,99.67,200.16,99.67Zm7.11,0h-1V91.49h1Zm10.06-4.09a4.08,4.08,0,1,1-4.08-4.26,4,4,0,0,1,4.09,3.91h0Q217.34,95.41,217.33,95.58Z"/><path class="cls-1" d="M13.41,179.67c0-4.31,3.07-7.33,6.68-7.33a4.84,4.84,0,0,1,4,1.63l.44-1.6H26.4v5.54H24.27c-.84-2.54-2-3.82-3.76-3.82-2,0-3.36,1.45-3.36,5.4,0,3.78,1.45,5.4,3.82,5.4,2.08,0,3.28-1.58,3.63-3.89h2c-.36,3.57-2.4,5.86-6.13,5.86C16.18,186.82,13.41,183.91,13.41,179.67Z"/><path class="cls-1" d="M38.26,182.07H33.57l-.88,2.6h1.74v1.83H29.12v-1.83h1.45l4.5-12.1h3.45l4.34,12.1H44.5v1.83H37.27v-1.83h1.87Zm-4.19-1.66h3.61l-1.74-5.17h-.08Z"/><path class="cls-1" d="M52.57,184.67h2v1.83H47.3v-1.83h1.89V174.49H47.3v-1.82h7.58c4.18,0,5.59,1.76,5.59,3.51s-1,3-4.29,3.4v.15c2.65.23,3.51,1.41,3.57,3l.06.82c0,.9.23,1.11.65,1.11s.55-.29.84-1.24l1.24.4c-.4,1.66-1.24,2.92-3.13,2.92-2.16,0-3.13-1.13-3.13-3.45v-.72c0-1.53-.38-2.16-1.93-2.16H52.57Zm1.83-5.9c1.64,0,2.35-.63,2.35-2.23,0-1.43-.48-2.12-2.29-2.12H52.57v4.35Z"/><path class="cls-1" d="M64.57,184.67h1.89V174.49H64.57v-1.82h13.2v4.92H75.94c-.53-2.63-.84-3.13-2.61-3.13h-3.4v4.21h1.14c1.18,0,1.28-.23,1.58-1.93h1.64v5.61H72.65c-.25-1.72-.42-2-1.58-2H69.94v4.32h3.32c2.12,0,2.37-.76,2.88-3.68H78v5.46H64.57Z"/><path class="cls-1" d="M81.57,184.67h1.89V174.49H81.57v-1.82H94.72v4.92H92.89c-.53-2.63-.84-3.13-2.61-3.13h-3.4v4.21H88c1.18,0,1.28-.23,1.58-1.93h1.64v5.61H89.57c-.25-1.72-.42-2-1.58-2H86.86v4.32h3.32c2.12,0,2.37-.76,2.88-3.68h1.83v5.46H81.57Z"/><path class="cls-1" d="M103.83,184.67h2v1.83H98.56v-1.83h1.89V174.49H98.56v-1.82h7.58c4.18,0,5.59,1.76,5.59,3.51s-1,3-4.29,3.4v.15c2.65.23,3.51,1.41,3.57,3l.06.82c0,.9.23,1.11.65,1.11s.55-.29.84-1.24l1.24.4c-.4,1.66-1.24,2.92-3.13,2.92-2.16,0-3.13-1.13-3.13-3.45v-.72c0-1.53-.38-2.16-1.93-2.16h-1.72v4.2Zm1.83-5.9c1.64,0,2.35-.63,2.35-2.23,0-1.43-.48-2.12-2.29-2.12h-1.89v4.35Z"/><path class="cls-1" d="M121.87,179.67c0-4.31,3.07-7.33,6.68-7.33a4.84,4.84,0,0,1,3.93,1.64l.44-1.6h1.89v5.54h-2.08c-.84-2.54-2-3.82-3.76-3.82-2,0-3.36,1.45-3.36,5.4,0,3.78,1.45,5.4,3.82,5.4,2.08,0,3.28-1.58,3.63-3.89h2c-.36,3.57-2.4,5.86-6.13,5.86A6.78,6.78,0,0,1,121.87,179.67Z"/><path class="cls-1" d="M138.38,184.67h1.89V174.49h-1.89v-1.82h13.19v4.92h-1.83c-.53-2.63-.84-3.13-2.61-3.13h-3.4v4.21h1.13c1.18,0,1.28-.23,1.58-1.93h1.63v5.61h-1.64c-.25-1.72-.42-2-1.58-2h-1.13v4.32h3.35c2.12,0,2.37-.76,2.88-3.68h1.83v5.46h-13.4Z"/><path class="cls-1" d="M159.21,175.91h-.14v8.7H161v1.83h-5.57v-1.83h1.81V174.49h-1.81v-1.82h5.88l5.86,9.66h.19v-7.84h-1.89v-1.82H171v1.83h-1.81v12.17h-3.45Z"/><path class="cls-1" d="M176.81,184.67H179V174.24h-.53c-1.7,0-2.06.57-2.84,4h-1.66v-5.57h13.49v5.57h-1.66c-.78-3.42-1.13-4-2.84-4h-.52v10.43h2.16v1.83H176.8v-1.83h0Z"/><path class="cls-1" d="M190.7,184.67h1.87V174.49h-1.89v-1.82h13.15v4.92H202c-.53-2.63-.84-3.13-2.61-3.13H196v4.21h1.13c1.18,0,1.28-.23,1.58-1.93h1.64v5.61H198.7c-.25-1.72-.42-2-1.58-2H196v4.32h3.32c2.12,0,2.37-.76,2.88-3.68h1.88v5.46H190.7Z"/><path class="cls-1" d="M213,184.67h2v1.83h-7.27v-1.83h1.88V174.49h-1.89v-1.82h7.58c4.18,0,5.59,1.76,5.59,3.51s-1,3-4.29,3.4v.15c2.65.23,3.51,1.41,3.57,3l.06.82c0,.9.23,1.11.65,1.11s.55-.29.84-1.24l1.24.4c-.4,1.66-1.24,2.92-3.13,2.92-2.16,0-3.13-1.13-3.13-3.45v-.72c0-1.53-.38-2.16-1.93-2.16H213v4.2Zm1.83-5.9c1.64,0,2.35-.63,2.35-2.23,0-1.43-.48-2.12-2.29-2.12H213v4.35Z"/><rect class="cls-1" x="10.52" y="164.49" width="215.28" height="0.64"/></svg>